<?xml version="1.0"?><svg width="1600" height="1200" xmlns="http://www.w3.org/2000/svg">
 <title>camera1</title>
 <metadata id="metadata12390">image/svg+xmlOther map symbolsMohamed IbrahimPublic Domainclker.comother map symbols</metadata>
 <g>
  <title>Layer 1</title>
  <g id="layer1">
   <path fill="#231f20" fill-rule="nonzero" id="path2776" d="m1093.098511,1167.231689c78.768433,0 142.797729,-63.143188 142.797729,-140.968384l0,-898.68631c0,-77.824924 -64.029297,-140.968117 -142.797729,-140.968117l-909.339691,0c-78.889153,0 -142.79784,63.143192 -142.79784,140.968117l0,898.68631c0,77.825195 63.908688,140.968384 142.79784,140.968384l909.339691,0z"/>
   <path fill="#ffffff" fill-rule="nonzero" id="path2778" d="m183.75882,10.48153c-65.358414,0 -118.756577,52.519889 -118.756577,117.095466l0,898.68631c0,64.575684 53.398163,116.976196 118.756577,116.976196l909.339691,0c65.358398,0 118.394043,-52.400513 118.394043,-116.976196l0,-898.68631c0,-64.575577 -53.035645,-117.095466 -118.394043,-117.095466l-909.339691,0z"/>
   <path fill="#231f20" fill-rule="nonzero" id="path2780" d="m722.693787,406.290314c75.86908,0 141.710632,40.822296 178.074463,100.981445l214.317688,0.238647l0,-113.514496c0,-42.254608 -34.793335,-76.511871 -77.439575,-76.511871l-798.677216,0c-42.766876,0 -77.197815,34.257263 -77.197815,76.511871l0.241638,112.559662l382.485565,0.238678c36.605591,-59.920349 102.205566,-100.503937 178.195251,-100.503937"/>
   <path fill="#231f20" fill-rule="nonzero" id="path2782" d="m362.07489,281.436249l-71.036438,0l-8.215118,25.305054l85.171326,0l-5.919769,-25.305054z"/>
   <path fill="#231f20" fill-rule="nonzero" id="path2784" d="m1002.7323,267.948242l-94.594543,0l-16.792603,39.031799l126.730042,0l-15.342896,-39.031799z"/>
   <path fill="#231f20" fill-rule="nonzero" id="path2786" d="m677.994019,293.492004l-81.426208,0l0,-38.91243l81.426208,0l0,38.91243zm74.660828,-54.549042l-229.9021,0l-47.357697,68.514526l320.630646,0l-43.37085,-68.514526z"/>
   <path fill="#231f20" fill-rule="nonzero" id="path2788" d="m911.882874,527.563477c11.839478,25.78241 18.846375,54.190979 18.846375,84.389771c0,113.514526 -93.144653,205.663208 -208.035461,205.663208c-115.011414,0 -208.156189,-92.148682 -208.156189,-205.663208c0,-30.198792 6.88623,-58.607361 18.846436,-84.509155l-371.612701,0l0,309.867126c0,42.016113 34.430939,76.273193 77.197815,76.273193l798.677216,0c42.64624,0 77.439575,-34.25708 77.439575,-76.273193l0.241577,-309.747742l-203.444641,0z"/>
   <path fill="#231f20" fill-rule="nonzero" id="path2790" d="m836.134705,544.393738c-3.26178,-5.729431 -7.369263,-11.10083 -11.839355,-16.233337c-24.282959,-28.886047 -60.64679,-47.864868 -101.601563,-47.864868c-41.075378,0 -77.439331,18.859436 -101.722229,47.626099c-4.469971,5.251953 -8.577637,10.623291 -12.081055,16.472107c-12.201782,19.814392 -19.57135,42.732056 -19.57135,67.559509c0,72.572998 59.68042,131.538513 133.374634,131.538513c73.331909,0 133.012268,-58.965515 133.012268,-131.538513c0,-24.827454 -7.248657,-47.745117 -19.57135,-67.559509"/>
  </g>
 </g>
</svg>